<svg xmlns="http://www.w3.org/2000/svg" viewBox="18 26 110 95">
<path fill="#FFAF11" d="M26.24,113.29c-0.7,0-1.35-0.23-1.94-0.76c-1.86-1.7-1.58-4.65,5.13-16.06c4.05-6.9,9.14-14.56,12.55-19.44
	c0.79-1.13,1.63-2.16,2.37-3.06c0.51-0.62,1-1.22,1.43-1.8c1.46-1.96,3.03-3.79,4.68-5.48c-6.12-9.87-6.33-20.79-5.52-31.24
	c0.1-1.25,1.19-2.19,2.45-2.1c1.26,0.1,2.19,1.19,2.1,2.45c-0.67,8.77-0.87,18.66,4.38,27.7c11.69-10.06,25.98-13.66,32.44-9.05
	c4.03,2.87,5.79,6.92,4.97,11.4c-1.13,6.13-7,11.75-14.29,13.65c-8.52,2.23-17.07-0.91-23.47-8.6c-0.12-0.15-0.25-0.3-0.37-0.45
	c-1.28,1.36-2.51,2.84-3.69,4.43c-0.49,0.66-1.01,1.3-1.57,1.98c-0.72,0.88-1.47,1.8-2.16,2.79c-7.41,10.59-14.1,21.57-16.7,27.15
	c0.26-0.21,0.55-0.44,0.85-0.7c14.48-12.25,23.29-13.83,32.61-15.52c5.34-0.96,10.86-1.96,17.81-5.24
	c8.51-4.01,15.35-12.61,21.38-20.2c4.25-5.35,8.27-10.4,12.58-13.65c6.08-4.58,22.06-9.38,25.47-9.97
	c1.06-0.18,1.71-0.69,2.05-1.1c-0.68,0-1.32,0.01-1.93,0.01c-5.07,0.03-8.41,0.05-11.96-1.98c-2.09-1.2-6.19-2.91-10.06-0.87
	c-2.06,1.09-3.2,2.94-4.51,5.08c-2.45,3.99-5.5,8.96-15.45,10.36c-0.95,0.13-1.92,0.2-2.9,0.2c-20.63,0-46.84-28.24-48-29.5
	c-0.85-0.93-0.79-2.37,0.13-3.22c0.93-0.85,2.37-0.79,3.22,0.13c0.28,0.31,28.28,30.5,46.91,27.88c7.83-1.1,9.95-4.56,12.2-8.23
	c1.53-2.49,3.1-5.06,6.27-6.73c4.3-2.27,9.44-1.93,14.46,0.94c2.49,1.43,4.89,1.41,9.67,1.38c0.71,0,1.47-0.01,2.28-0.01
	c2.91,0,4.38,1.84,4.53,3.66c0.26,2.95-2.49,5.86-6.12,6.49c-3.58,0.62-18.43,5.29-23.51,9.12c-3.85,2.9-7.69,7.73-11.75,12.85
	c-6.34,7.98-13.53,17.02-23.01,21.49c-7.49,3.53-13.31,4.58-18.94,5.6c-8.7,1.57-16.92,3.05-30.47,14.51
	C30.54,111.49,28.21,113.29,26.24,113.29z M56.42,67.25c0.19,0.24,0.39,0.49,0.59,0.73c7.15,8.6,14.86,8.14,18.81,7.11
	c5.55-1.45,10.16-5.69,10.96-10.07c0.5-2.71-0.55-5.02-3.13-6.86C79.57,55.23,67.2,57.68,56.42,67.25z"/>
</svg>
