<?xml version="1.0" encoding="utf-8"?>
<!-- Generator: Adobe Illustrator 25.3.0, SVG Export Plug-In . SVG Version: 6.00 Build 0)  -->
<svg version="1.1" id="Layer_1" xmlns="http://www.w3.org/2000/svg" xmlns:xlink="http://www.w3.org/1999/xlink" x="0px" y="0px"
	 viewBox="0 0 436 134" style="enable-background:new 0 0 436 134;" xml:space="preserve">
<style type="text/css">
	.st0{fill:#FFAF11;}
</style>
<g>
	<g>
		<path class="st0" d="M26.24,113.29c-0.7,0-1.35-0.23-1.94-0.76c-1.86-1.7-1.58-4.65,5.13-16.06c4.05-6.9,9.14-14.56,12.55-19.44
			c0.79-1.13,1.63-2.16,2.37-3.06c0.51-0.62,1-1.22,1.43-1.8c1.46-1.96,3.03-3.79,4.68-5.48c-6.12-9.87-6.33-20.79-5.52-31.24
			c0.1-1.25,1.19-2.19,2.45-2.1c1.26,0.1,2.19,1.19,2.1,2.45c-0.67,8.77-0.87,18.66,4.38,27.7c11.69-10.06,25.98-13.66,32.44-9.05
			c4.03,2.87,5.79,6.92,4.97,11.4c-1.13,6.13-7,11.75-14.29,13.65c-8.52,2.23-17.07-0.91-23.47-8.6c-0.12-0.15-0.25-0.3-0.37-0.45
			c-1.28,1.36-2.51,2.84-3.69,4.43c-0.49,0.66-1.01,1.3-1.57,1.98c-0.72,0.88-1.47,1.8-2.16,2.79c-7.41,10.59-14.1,21.57-16.7,27.15
			c0.26-0.21,0.55-0.44,0.85-0.7c14.48-12.25,23.29-13.83,32.61-15.52c5.34-0.96,10.86-1.96,17.81-5.24
			c8.51-4.01,15.35-12.61,21.38-20.2c4.25-5.35,8.27-10.4,12.58-13.65c6.08-4.58,22.06-9.38,25.47-9.97
			c1.06-0.18,1.71-0.69,2.05-1.1c-0.68,0-1.32,0.01-1.93,0.01c-5.07,0.03-8.41,0.05-11.96-1.98c-2.09-1.2-6.19-2.91-10.06-0.87
			c-2.06,1.09-3.2,2.94-4.51,5.08c-2.45,3.99-5.5,8.96-15.45,10.36c-0.95,0.13-1.92,0.2-2.9,0.2c-20.63,0-46.84-28.24-48-29.5
			c-0.85-0.93-0.79-2.37,0.13-3.22c0.93-0.85,2.37-0.79,3.22,0.13c0.28,0.31,28.28,30.5,46.91,27.88c7.83-1.1,9.95-4.56,12.2-8.23
			c1.53-2.49,3.1-5.06,6.27-6.73c4.3-2.27,9.44-1.93,14.46,0.94c2.49,1.43,4.89,1.41,9.67,1.38c0.71,0,1.47-0.01,2.28-0.01
			c2.91,0,4.38,1.84,4.53,3.66c0.26,2.95-2.49,5.86-6.12,6.49c-3.58,0.62-18.43,5.29-23.51,9.12c-3.85,2.9-7.69,7.73-11.75,12.85
			c-6.34,7.98-13.53,17.02-23.01,21.49c-7.49,3.53-13.31,4.58-18.94,5.6c-8.7,1.57-16.92,3.05-30.47,14.51
			C30.54,111.49,28.21,113.29,26.24,113.29z M56.42,67.25c0.19,0.24,0.39,0.49,0.59,0.73c7.15,8.6,14.86,8.14,18.81,7.11
			c5.55-1.45,10.16-5.69,10.96-10.07c0.5-2.71-0.55-5.02-3.13-6.86C79.57,55.23,67.2,57.68,56.42,67.25z"/>
	</g>
	<g fill="currentColor">
		<path d="M115.28,113.37l11.19-33.8h8.96l11.21,33.8h-7.06l-2.25-6.86h-13.02l-2.2,6.86H115.28z M126.27,100.47h9.11l-4.54-13.97
			L126.27,100.47z"/>
		<path d="M151.55,113.37V77h6.3v36.36H151.55z"/>
		<path d="M163.92,113.37V77h6.3v36.36H163.92z"/>
		<path d="M205.06,113.37c-1.69,0.5-3.48,0.76-5.35,0.76c-2.96,0-5.1-0.67-6.4-2c-1.3-1.33-1.95-3.5-1.95-6.5V92.76h-3.25v-5.01
			h3.25v-7.13h6.3v7.13h5.96v5.01h-5.96v12.06c0,1.6,0.25,2.68,0.75,3.25c0.5,0.57,1.2,0.85,2.11,0.85c1.16,0,2.3-0.24,3.44-0.71
			L205.06,113.37z"/>
		<path d="M226.71,113.37V99.25c0-2.7-0.25-4.49-0.76-5.37c-0.5-0.88-1.4-1.32-2.69-1.32c-1.87,0-4.13,1.24-6.77,3.71v17.1h-6.3V77
			h6.3v14.07c1.33-1.33,2.76-2.34,4.27-3.03c1.51-0.68,2.99-1.03,4.44-1.03c2.87,0,4.88,0.81,6.04,2.42
			c1.16,1.61,1.75,3.89,1.75,6.84v17.1H226.71z"/>
		<path d="M244.08,102.21c0.11,2.28,0.67,3.92,1.66,4.91c0.99,0.99,2.56,1.49,4.69,1.49c1.24,0,2.32-0.15,3.26-0.46
			c0.94-0.31,1.75-0.9,2.45-1.78l4.69,3.35c-1.03,1.48-2.36,2.59-3.99,3.32c-1.64,0.73-3.87,1.1-6.7,1.1
			c-4.22,0-7.36-1.11-9.44-3.32c-2.08-2.21-3.11-5.56-3.11-10.04c0-9.17,4.1-13.75,12.31-13.75c3.65,0,6.43,1.03,8.34,3.09
			c1.91,2.06,2.87,5.06,2.87,9v3.1H244.08z M254.85,97.86c0-3.89-1.7-5.84-5.1-5.84c-1.12,0-2.04,0.19-2.76,0.57
			c-0.72,0.38-1.29,0.95-1.72,1.71c-0.43,0.76-0.77,1.94-1.01,3.55H254.85z"/>
		<path d="M307.09,96.47c0,4.07-0.56,7.34-1.68,9.82c-1.12,2.48-2.82,4.27-5.08,5.4c-2.26,1.12-5.45,1.69-9.55,1.69h-10.31v-33.8
			h10.21c3.99,0,7.16,0.58,9.51,1.73c2.35,1.16,4.09,2.96,5.22,5.41C306.53,89.16,307.09,92.41,307.09,96.47z M299.99,96.42
			c0-2.95-0.29-5.13-0.87-6.56c-0.58-1.42-1.56-2.45-2.94-3.07c-1.38-0.62-3.43-0.93-6.15-0.93h-2.64v21.2h2.64
			c2.72,0,4.77-0.31,6.14-0.94c1.38-0.63,2.36-1.67,2.94-3.14C299.69,101.52,299.99,99.33,299.99,96.42z"/>
		<path d="M328.28,113.37v-3.3c-1.11,1.19-2.46,2.16-4.07,2.92c-1.6,0.76-3.15,1.14-4.63,1.14c-2.9,0-4.93-0.8-6.08-2.41
			c-1.16-1.6-1.74-3.89-1.74-6.85V87.75h6.3v14.12c0,1.81,0.11,3.19,0.32,4.15c0.21,0.96,0.56,1.62,1.04,1.99
			c0.48,0.37,1.18,0.55,2.11,0.55c1.87,0,4.12-1.23,6.74-3.69V87.75h6.3v25.62H328.28z"/>
		<path d="M362.09,109.71c-0.98,1.45-2.26,2.55-3.86,3.3c-1.6,0.75-3.61,1.12-6.06,1.12c-4.14,0-7.26-1.13-9.38-3.38
			c-2.12-2.25-3.17-5.6-3.17-10.02c0-4.31,1.03-7.68,3.08-10.09s5.13-3.61,9.23-3.61c2.2,0,4.15,0.36,5.87,1.07
			c1.72,0.72,3.02,1.82,3.92,3.32l-4.69,3.35c-0.57-0.77-1.24-1.33-2-1.7c-0.77-0.37-1.75-0.55-2.96-0.55
			c-2.15,0-3.68,0.66-4.59,1.98c-0.91,1.32-1.37,3.36-1.37,6.13c0,2.77,0.47,4.79,1.41,6.07s2.54,1.92,4.8,1.92
			c0.98,0,1.87-0.14,2.69-0.42c0.81-0.28,1.59-0.89,2.32-1.83L362.09,109.71z"/>
		<path d="M381.62,113.37l-6.84-10.6l-2.47,2.64v7.96h-6.3V77h6.3v20.81l8.62-10.06h7.3l-9.67,10.77l10.21,14.85H381.62z"/>
		<path d="M412.69,106.07c0,1.69-0.43,3.14-1.28,4.35c-0.86,1.21-2.07,2.13-3.64,2.76c-1.57,0.63-3.37,0.95-5.39,0.95
			c-5.36,0-9-1.49-10.94-4.47l4.69-3.3c0.76,1.04,1.65,1.74,2.65,2.09c1,0.35,2.07,0.52,3.21,0.52c3,0,4.49-0.87,4.49-2.61
			c0-0.77-0.42-1.36-1.27-1.77c-0.85-0.42-2.17-0.84-3.98-1.28c-3.4-0.75-5.8-1.81-7.18-3.17c-1.38-1.37-2.07-3.14-2.07-5.32
			c0-2.26,0.87-4.13,2.6-5.59c1.73-1.47,4.29-2.2,7.66-2.2c2.3,0,4.32,0.37,6.07,1.1c1.75,0.73,3.1,1.83,4.04,3.3l-4.71,3.35
			c-1.12-1.73-2.95-2.59-5.49-2.59c-1.3,0-2.29,0.22-2.96,0.67c-0.67,0.45-1,1.02-1,1.72c0,0.67,0.3,1.2,0.9,1.6
			c0.6,0.4,1.79,0.82,3.57,1.26c2.91,0.72,4.99,1.43,6.24,2.14c1.25,0.71,2.19,1.59,2.83,2.64
			C412.36,103.25,412.69,104.54,412.69,106.07z"/>
	</g>
</g>
</svg>
