<?xml version="1.0" encoding="utf-8"?>
<!-- Generator: Adobe Illustrator 25.3.0, SVG Export Plug-In . SVG Version: 6.00 Build 0)  -->
<svg version="1.1" id="Layer_1" xmlns="http://www.w3.org/2000/svg" xmlns:xlink="http://www.w3.org/1999/xlink" x="0px" y="0px"
	 viewBox="0 0 168.88 144.92" style="enable-background:new 0 0 168.88 144.92;" xml:space="preserve">
<style type="text/css">
	.st0{fill:#FFAF11;}
</style>
<g>
	<path class="st0" d="M19.28,124.28c-0.78,0-1.5-0.25-2.15-0.85c-2.07-1.88-1.75-5.16,5.69-17.82c4.5-7.65,10.14-16.16,13.93-21.57
		c0.88-1.25,1.81-2.39,2.63-3.39c0.57-0.69,1.11-1.35,1.59-2c1.61-2.18,3.36-4.21,5.19-6.08c-6.79-10.95-7.02-23.06-6.13-34.65
		c0.11-1.39,1.32-2.43,2.71-2.33c1.39,0.11,2.43,1.32,2.33,2.71c-0.75,9.73-0.96,20.71,4.86,30.73
		C62.9,57.87,78.75,53.88,85.91,58.99c4.47,3.19,6.42,7.68,5.51,12.64c-1.25,6.8-7.77,13.03-15.86,15.15
		c-9.45,2.48-18.94-1-26.04-9.54c-0.14-0.17-0.27-0.33-0.41-0.5c-1.42,1.51-2.79,3.15-4.1,4.92c-0.54,0.73-1.12,1.44-1.74,2.19
		c-0.8,0.98-1.63,1.99-2.4,3.09c-8.22,11.75-15.65,23.93-18.53,30.12c0.29-0.23,0.61-0.49,0.95-0.78
		c16.07-13.59,25.84-15.35,36.18-17.22c5.93-1.07,12.05-2.18,19.76-5.81c9.44-4.45,17.03-13.99,23.72-22.41
		c4.72-5.93,9.17-11.54,13.96-15.15c6.75-5.08,24.48-10.41,28.26-11.06c1.17-0.2,1.89-0.76,2.28-1.22c-0.75,0-1.47,0.01-2.14,0.01
		c-5.63,0.04-9.33,0.06-13.27-2.2c-2.32-1.33-6.86-3.23-11.16-0.96c-2.29,1.21-3.55,3.26-5.01,5.64c-2.72,4.43-6.1,9.94-17.14,11.49
		c-1.06,0.15-2.13,0.22-3.22,0.22c-22.89,0-51.97-31.34-53.25-32.73c-0.95-1.03-0.88-2.63,0.15-3.57c1.03-0.95,2.63-0.88,3.57,0.15
		c0.31,0.34,31.37,33.83,52.05,30.93c8.68-1.22,11.04-5.06,13.54-9.13c1.69-2.76,3.44-5.61,6.96-7.46
		c4.78-2.52,10.47-2.15,16.04,1.05c2.76,1.58,5.42,1.56,10.73,1.53c0.79-0.01,1.63-0.01,2.52-0.01c3.23,0,4.86,2.04,5.03,4.06
		c0.28,3.27-2.76,6.5-6.79,7.2c-3.98,0.69-20.44,5.87-26.08,10.12c-4.27,3.22-8.53,8.58-13.04,14.25
		c-7.04,8.85-15.01,18.89-25.52,23.84c-8.31,3.92-14.77,5.08-21.02,6.21c-9.66,1.74-18.78,3.39-33.81,16.1
		C24.05,122.28,21.45,124.28,19.28,124.28z M52.76,73.2c0.21,0.27,0.43,0.54,0.65,0.81c7.94,9.54,16.49,9.03,20.87,7.88
		c6.15-1.61,11.27-6.31,12.16-11.17c0.55-3.01-0.62-5.57-3.48-7.61C78.44,59.87,64.72,62.59,52.76,73.2z"/>
</g>
</svg>
